<svg width="1024" height="594" viewBox="0 0 1024 594" fill="none" xmlns="http://www.w3.org/2000/svg">
<path d="M1013 593.971C1019.08 593.971 1024.02 589.044 1023.83 582.972C1020.43 474.686 966.917 371.428 874.039 294.636C778.02 215.247 647.791 170.647 512 170.647C376.209 170.647 245.98 215.247 149.961 294.636C57.0828 371.428 3.57309 474.686 0.17265 582.972C-0.018031 589.044 4.92487 593.971 11 593.971L111.566 593.971C117.642 593.971 122.543 589.042 122.793 582.972C126.155 501.569 166.737 424.079 236.629 366.293C309.662 305.909 408.716 271.985 512 271.985C615.284 271.985 714.338 305.909 787.371 366.293C857.263 424.079 897.845 501.569 901.207 582.972C901.457 589.042 906.359 593.971 912.434 593.971H1013Z" fill="#AAD4C8"/>
<path d="M395 60.1735C395 93.4064 360.75 120.347 318.5 120.347C276.25 120.347 242 93.4064 242 60.1735C242 26.9406 276.25 0 318.5 0C360.75 0 395 26.9406 395 60.1735Z" fill="#AAD4C8"/>
<path d="M781 60.1735C781 93.4064 746.75 120.347 704.5 120.347C662.25 120.347 628 93.4064 628 60.1735C628 26.9406 662.25 0 704.5 0C746.75 0 781 26.9406 781 60.1735Z" fill="#AAD4C8"/>
</svg>
