 <svg
            width="523"
            height="104"
            viewBox="0 0 523 104"
            fill="none"
            xmlns="http://www.w3.org/2000/svg"
          >
            <path
              d="M0.695001 102V8.56H19.895V44.784H28.983L44.343 8.56H65.207L46.007 53.232L65.975 102H44.855L28.983 62.448H19.895V102H0.695001ZM107.525 103.28C101.296 103.28 95.877 102.128 91.269 99.824C86.661 97.4347 83.077 94.1493 80.517 89.968C78.0423 85.7013 76.805 80.752 76.805 75.12V58.48C76.805 52.848 78.0423 47.9413 80.517 43.76C83.077 39.4933 86.661 36.208 91.269 33.904C95.877 31.5147 101.296 30.32 107.525 30.32C113.84 30.32 119.258 31.5147 123.781 33.904C128.389 36.208 131.93 39.4933 134.405 43.76C136.965 47.9413 138.245 52.848 138.245 58.48V75.12C138.245 80.752 136.965 85.7013 134.405 89.968C131.93 94.1493 128.389 97.4347 123.781 99.824C119.258 102.128 113.84 103.28 107.525 103.28ZM107.525 86.64C111.28 86.64 114.138 85.6587 116.101 83.696C118.064 81.648 119.045 78.7893 119.045 75.12V58.48C119.045 54.7253 118.064 51.8667 116.101 49.904C114.138 47.9413 111.28 46.96 107.525 46.96C103.856 46.96 100.997 47.9413 98.949 49.904C96.9863 51.8667 96.005 54.7253 96.005 58.48V75.12C96.005 78.7893 96.9863 81.648 98.949 83.696C100.997 85.6587 103.856 86.64 107.525 86.64ZM176.979 103.28C169.896 103.28 164.222 100.805 159.955 95.856C155.688 90.9067 153.555 84.208 153.555 75.76V57.84C153.555 49.4773 155.688 42.8213 159.955 37.872C164.222 32.8373 169.896 30.32 176.979 30.32C182.782 30.32 187.347 32.0267 190.675 35.44C194.003 38.768 195.667 43.4613 195.667 49.52L191.187 45.04H195.667L195.027 27.76V8.56H214.227V102H195.667V88.56H191.187L195.667 84.08C195.667 90.1387 194.003 94.8747 190.675 98.288C187.347 101.616 182.782 103.28 176.979 103.28ZM183.891 86.64C187.39 86.64 190.12 85.6587 192.083 83.696C194.046 81.648 195.027 78.7893 195.027 75.12V58.48C195.027 54.8107 194.046 51.9947 192.083 50.032C190.12 47.984 187.39 46.96 183.891 46.96C180.307 46.96 177.534 47.984 175.571 50.032C173.694 51.9947 172.755 54.8107 172.755 58.48V75.12C172.755 78.7893 173.694 81.648 175.571 83.696C177.534 85.6587 180.307 86.64 183.891 86.64ZM272.545 102C267.596 102 263.244 100.976 259.489 98.928C255.734 96.7947 252.79 93.8507 250.657 90.096C248.609 86.3413 247.585 81.9893 247.585 77.04V25.84H225.825V8.56H266.785V77.04C266.785 79.344 267.468 81.2213 268.833 82.672C270.284 84.0373 272.161 84.72 274.465 84.72H294.945V102H272.545ZM308.335 102V84.592H332.655V48.88H311.535V31.6H350.575V84.592H371.055V102H308.335ZM340.335 20.464C336.836 20.464 334.02 19.568 331.887 17.776C329.839 15.984 328.815 13.552 328.815 10.48C328.815 7.40799 329.839 4.976 331.887 3.184C334.02 1.392 336.836 0.495995 340.335 0.495995C343.834 0.495995 346.607 1.392 348.655 3.184C350.788 4.976 351.855 7.40799 351.855 10.48C351.855 13.552 350.788 15.984 348.655 17.776C346.607 19.568 343.834 20.464 340.335 20.464ZM384.573 102V31.6H403.133V45.04H408.765L403.133 49.52C403.133 43.5467 404.84 38.8533 408.253 35.44C411.666 32.0267 416.274 30.32 422.077 30.32C428.904 30.32 434.365 32.7093 438.461 37.488C442.642 42.2667 444.733 48.624 444.733 56.56V102H425.533V58.48C425.533 54.8107 424.552 51.9947 422.589 50.032C420.712 47.984 418.024 46.96 414.525 46.96C411.112 46.96 408.466 47.984 406.589 50.032C404.712 51.9947 403.773 54.8107 403.773 58.48V102H384.573ZM491.659 103.28C485.43 103.28 479.968 102.128 475.275 99.824C470.582 97.4347 466.955 94.1493 464.395 89.968C461.835 85.7013 460.555 80.752 460.555 75.12V58.48C460.555 52.7627 461.835 47.8133 464.395 43.632C466.955 39.4507 470.582 36.208 475.275 33.904C479.968 31.5147 485.43 30.32 491.659 30.32C500.96 30.32 508.384 32.6667 513.931 37.36C519.478 42.0533 522.422 48.4533 522.763 56.56H503.563C503.307 53.5733 502.112 51.2267 499.979 49.52C497.931 47.8133 495.158 46.96 491.659 46.96C487.819 46.96 484.875 47.9413 482.827 49.904C480.779 51.8667 479.755 54.7253 479.755 58.48V75.12C479.755 78.7893 480.779 81.648 482.827 83.696C484.875 85.6587 487.819 86.64 491.659 86.64C495.158 86.64 497.931 85.8293 499.979 84.208C502.112 82.5013 503.307 80.112 503.563 77.04H522.763C522.422 85.1467 519.478 91.5467 513.931 96.24C508.384 100.933 500.96 103.28 491.659 103.28Z"
              class="#AAD4C8"
            />
          </svg>